<?xml version="1.0" encoding="UTF-8"?>
<svg width="209px" height="139px" viewBox="0 0 209 139" version="1.1" xmlns="http://www.w3.org/2000/svg" xmlns:xlink="http://www.w3.org/1999/xlink">
    <!-- Generator: Sketch 57.1 (83088) - https://sketch.com -->
    <title>Artboard 2 copy</title>
    <desc>Created with Sketch.</desc>
    <g id="Wireframe" stroke="none" stroke-width="1" fill="none" fill-rule="evenodd">
        <g id="01001-Splashscreen" transform="translate(-131.000000, -229.000000)" fill-rule="nonzero">
            <g id="Artboard-2-copy" transform="translate(131.000000, 229.000000)">
                <g id="Group" transform="translate(57.000000, 0.000000)">
                    <path d="M74.6524711,0.00683927806 C76.9564297,-0.313230488 77.8747909,10.649159 88.9595709,22.7317927 C92.4961115,26.480131 96.3620913,29.9077806 100.511587,32.9740252 C112.949742,42.5761182 117.009865,41.5678984 119.523274,46.8170426 C122.648924,53.3144588 117.154869,56.2751042 118.556578,67.6215774 C119.877729,78.3759215 125.661793,82.4728145 123.535062,84.8413308 C120.312742,88.4421157 102.879992,83.4650308 91.086302,72.4866378 C79.8081827,61.940339 77.0853225,49.0415275 74.4107971,36.2707438 C70.5762366,17.8827357 71.8168297,0.390922998 74.6524711,0.00683927806 Z" id="Path" fill="#77C6C0"></path>
                    <path d="M12.0377355,54.0611101 C12.6692908,53.2586004 21.2519654,60.4811875 40.6520486,68.6025854 C70.9828966,81.1859372 95.2410975,82.1328986 94.9981916,84.1873234 C94.8038669,85.7923428 80.4238386,87.301061 64.8454746,84.1873234 C32.7009294,78.0240491 10.9689497,55.4414267 12.0377355,54.0611101 Z" id="Path" fill="#5C96D0"></path>
                    <path d="M0.00540324776,92.9373302 C-0.300971871,92.2063952 12.4539081,84.6209144 30.0624149,81.0636975 C64.5538032,74.0954508 96.3200655,86.8624484 95.9975654,88.6329353 C95.9008153,89.1039823 83.7909356,88.3892903 59.5550513,87.0086354 C43.430045,86.0665414 43.0752949,85.8878684 39.3342935,85.9690834 C16.2594095,86.4076444 0.327903372,93.7494801 0.00540324776,92.9373302 Z" id="Path" fill="#356EB5"></path>
                    <polygon id="Path" fill="#356EB5" points="141.197232 75 152 77.0620155 143.086505 81 138 80.3953488"></polygon>
                    <path d="M144.991064,78.5617466 C145.08017,80.325799 144.50017,82.057229 143.371105,83.3976873 C139.321208,89.2569329 130.897421,89.8841198 129.35846,89.9996542 C126.079826,90.0137359 122.813056,89.5976931 119.638706,88.7617854 C116.459634,88.1761688 113.329331,87.3429775 110.275342,86.2695429 C101.981152,83.2491431 95.5985134,78.1491237 96.0197028,77.4559172 C96.4408921,76.7627107 99.3244192,79.1229138 104.994276,79.6675761 C108.983345,80.2678975 113.057277,79.7839318 116.803777,78.2646581 C121.210066,76.2840681 120.707879,74.2374583 125.130367,72.3558978 C128.518122,70.9414366 132.251282,70.6244765 135.822096,71.4481273 C136.356683,71.6296814 144.35928,73.6927961 144.991064,78.5617466 Z" id="Path" fill="#FEFFFE"></path>
                    <path d="M139.981151,84.322035 C139.689133,82.9196501 136.476927,82.4038304 135.389968,82.2426368 C128.349073,81.1304005 119.166707,84.0641251 119.004474,86.5303881 C118.842241,88.2551602 123.141406,89.3996352 123.871452,89.609187 C127.945632,90.4693999 132.193949,89.8997494 135.892889,87.9972504 C137.093411,87.4008338 140.27317,85.8050166 139.981151,84.322035 Z" id="Path" fill="#5C96D0"></path>
                    <path d="M34.3234153,39.1511535 C36.0950486,37.7460369 43.2621107,46.4801143 59.6255605,51.1425468 C64.7736634,52.5031987 70.0256288,53.4430918 75.3286742,53.9527802 C91.4344318,55.7890122 94.2368336,52.9787788 99.4873106,56.1243241 C105.929614,60.0362966 102.998366,65.2575824 110.761341,74.0874632 C118.137778,82.4542942 125.401475,83.0291147 124.982725,86.0788565 C124.370706,90.6933874 106.799325,95.1961476 90.4680863,91.827061 C74.7810784,88.6336141 65.0048835,79.0532732 55.3253232,69.6805064 C41.2811025,56.2041603 32.1330322,40.9235166 34.3234153,39.1511535 Z" id="Path" fill="#356EB5"></path>
                </g>
                <g id="Group-2" transform="translate(0.000000, 84.000000)" fill="#FEFFFE">
                    <path d="M48.99975,49.8667688 C49.0118115,50.9545909 48.5869852,52.0023968 47.8191128,52.7780888 C47.0512405,53.5537809 46.0037054,53.9933302 44.9085453,53.9996913 C43.2385189,54.0203525 41.7333694,53.0021924 41.1411788,51.4509338 L37.7667278,42.5199166 L11.2333737,42.5199166 L7.85892278,51.382057 C7.14560179,53.2024546 5.22345635,54.2553121 3.29296943,53.8830637 C1.36248251,53.5108152 -0.0235126276,51.8200614 0.000302238452,49.8667688 C0.0304821175,49.3482943 0.139589733,48.8373518 0.324189827,48.3514805 L17.959163,4.45403862 C18.9793387,1.77095005 21.5665321,-0.00334308496 24.4538254,4.729406e-06 C27.3587246,0.0105650027 29.9657609,1.77337296 31.0409386,4.45403862 L48.6759118,48.3514805 C48.8743899,48.8332101 48.9839951,49.3464826 48.99975,49.8667688 L48.99975,49.8667688 Z M35.1318826,35.4485713 L24.4538254,7.32390276 L13.868219,35.4485713 L35.1318826,35.4485713 Z" id="Shape"></path>
                    <path d="M57.0011628,51.2934373 L57.0011628,18.6596465 C56.9952075,17.6911977 57.3600828,16.7602816 58.0148942,16.0732864 C58.6697056,15.3862912 59.560349,15 60.4893649,15 C62.4181191,15.0251362 63.9758151,16.6489834 63.9999273,18.6596465 L63.9999273,51.2934373 C64.0060079,52.2823843 63.6303046,53.2323277 62.9573874,53.9294376 C62.2844701,54.6265474 61.3708873,55.0122424 60.4222841,55 C59.4951578,54.9875555 58.6113575,54.5886508 57.9684555,53.892164 C57.3255535,53.1956772 56.9771618,52.2596887 57.0011628,51.2934373 Z" id="Path"></path>
                    <path d="M109,27.3661885 L109,51.338455 C109.006062,52.311418 108.624941,53.2463209 107.941699,53.9343235 C107.258458,54.622326 106.330025,55.0061029 105.363795,55 C104.42575,54.9938713 103.528866,54.6112255 102.872026,53.9368391 C102.215185,53.2624527 101.852673,52.3520599 101.864875,51.4075394 L101.864875,29.8532248 C101.864875,23.4514092 98.6175111,21.3788789 93.7007283,21.3788789 C89.5154504,21.5229172 85.6246129,23.5836571 83.1353623,26.9747106 L83.1353623,51.338455 C83.1475628,52.3012981 82.7778213,53.2292623 82.1081149,53.9166041 C81.4384086,54.6039459 80.5240752,54.9938702 79.5678361,55 C78.6198015,55.0061042 77.7088175,54.6296064 77.0384418,53.9545592 C76.368066,53.2795121 75.9941736,52.3621802 76,51.4075394 L76,19.16818 C75.9747982,17.2056568 77.5276136,15.5905856 79.4763611,15.5527661 C81.4757162,15.5399449 83.1102532,17.1550107 83.1353623,19.16818 L83.1353623,21.3097946 C86.6043539,17.4217491 91.5078053,15.1402856 96.6965355,15 C104.792076,14.9770633 109,19.3063487 109,27.3661885 Z" id="Path"></path>
                    <path d="M152,27.6422234 L152,50.7661208 C152,52.7744598 150.402746,54.4025402 148.432432,54.4025402 C146.462119,54.4025402 144.864865,52.7744598 144.864865,50.7661208 L144.864865,49.6239122 C141.670836,53.2260347 137.068933,55.1911801 132.309771,54.9852997 C128.837473,55.144317 125.452226,53.8501234 122.938967,51.4028026 C120.425707,48.9554818 119.002737,45.567609 119,42.0247281 C119,33.1434732 125.860707,29.2506396 132.309771,29.2506396 C137.03196,29.0044205 141.619374,30.8986914 144.841996,34.4255441 L144.841996,27.9685687 C144.841996,23.0966992 140.954262,20.1829016 135.465696,20.1829016 C132.023968,20.1575637 128.68223,21.3617038 126.02079,23.5862171 C125.502931,23.9529935 124.890342,24.1557244 124.259875,24.1689767 C122.670063,24.1309859 121.400811,22.8061879 121.401247,21.185248 C121.404499,20.2579361 121.847543,19.389485 122.590437,18.8542099 C126.539725,15.6058934 131.490011,13.8881664 136.56341,14.0056508 C144.841996,13.95903 152,17.6886909 152,27.6422234 Z M144.841996,45.4280437 L144.841996,38.8078956 C142.416124,35.8400122 138.771953,34.1939108 134.985447,34.3556129 C129.839917,34.3556129 126.180873,37.5025143 126.180873,42.1179697 C126.180873,46.733425 129.862786,49.8103952 135.008316,49.8103952 C138.775359,49.981867 142.40749,48.3632179 144.841996,45.4280437 Z" id="Shape"></path>
                </g>
            </g>
        </g>
    </g>
</svg>