<?xml version="1.0" encoding="UTF-8"?>
<svg width="164px" height="34px" viewBox="0 0 164 34" version="1.1" xmlns="http://www.w3.org/2000/svg" xmlns:xlink="http://www.w3.org/1999/xlink">
    <!-- Generator: sketchtool 57.1 (101010) - https://sketch.com -->
    <title>D22027B0-2080-4FC4-BE2F-667544BD4FB8</title>
    <desc>Created with sketchtool.</desc>
    <g id="Page-1" stroke="none" stroke-width="1" fill="none" fill-rule="evenodd">
        <g id="Desktop-HD" transform="translate(-84.000000, -18.000000)" fill-rule="nonzero">
            <g id="Header">
                <g id="Logo" transform="translate(84.000000, 18.000000)">
                    <g id="Golondrina" transform="translate(108.000000, 0.000000)">
                        <path d="M27.5948896,0.00251939917 C28.4243147,-0.115385371 28.7549247,3.92285299 32.7454455,8.37375805 C34.0186001,9.75454128 35.4103529,11.0171917 36.9041714,12.1467107 C41.381907,15.6838538 42.8435513,15.3124537 43.7483786,17.246092 C44.8736127,19.6395588 42.8957528,20.7301779 43.4003681,24.909902 C43.8759825,28.8715023 45.9582456,30.3806833 45.1926224,31.2531786 C44.0325873,32.5796073 37.7567972,30.7461881 33.5110687,26.7020545 C29.4509458,22.8170923 28.4707161,18.0655301 27.507887,13.3611298 C26.1274452,6.58750079 26.5740587,0.144005123 27.5948896,0.00251939917 Z" id="Path" fill="#77C6C0"></path>
                        <path d="M4.33374847,19.4619996 C4.56384765,19.1730961 7.69083655,21.7732275 14.7590114,24.6969308 C25.8096722,29.2269374 34.6478408,29.5678435 34.5593411,30.3074364 C34.4885414,30.8852434 29.24936,31.4283819 23.5735801,30.3074364 C11.8621217,28.0886577 3.94434985,19.9589136 4.33374847,19.4619996 Z" id="Path" fill="#5C96D0"></path>
                        <path d="M0.00198569355,33.8174389 C-0.110607162,33.5543023 4.57681121,30.8235292 11.0479375,29.5429311 C23.7235227,27.0343623 35.3976241,31.6304814 35.2791053,32.2678567 C35.2435496,32.4374336 30.7931688,32.1801445 21.8864813,31.6831087 C15.9605416,31.3439549 15.8301709,31.2796326 14.4553528,31.30887 C5.975333,31.466752 0.120504489,34.1098129 0.00198569355,33.8174389 Z" id="Path" fill="#356EB5"></path>
                        <polygon id="Path" fill="#356EB5" points="51.5510035 27.36 55.44 28.1023256 52.2311419 29.52 50.4 29.3023256"></polygon>
                        <path d="M53.2767176,28.065504 C53.3094503,28.733987 53.0963891,29.3901078 52.6816306,29.898071 C51.1939131,32.1184167 48.0994607,32.3560875 47.5341281,32.399869 C46.3297321,32.4052052 45.129694,32.2475469 43.9636061,31.9307818 C42.7957838,31.7088639 41.6458768,31.3931283 40.5240033,30.9863531 C37.4771579,29.8417805 35.1325151,27.9091416 35.2872378,27.6464528 C35.4419604,27.383764 36.5012152,28.2781568 38.5840197,28.4845551 C40.049392,28.7120454 41.5459385,28.5286479 42.9222039,27.9529231 C44.5408405,27.2023837 44.3563635,26.4268263 45.980951,25.7138139 C47.2254326,25.1778076 48.5967974,25.0576964 49.9085252,25.3698167 C50.1049039,25.4386161 53.0446336,26.220428 53.2767176,28.065504 Z" id="Path" fill="#FEFFFE"></path>
                        <path d="M51.1128913,30.3559326 C51.0027586,29.851074 49.7912981,29.6653789 49.3813594,29.6073492 C46.725936,29.2069442 43.2628722,30.263085 43.2016873,31.1509397 C43.1405025,31.7718577 44.7619016,32.1838687 45.0372335,32.2593073 C46.573781,32.568984 48.1760036,32.3639098 49.5710326,31.6790101 C50.0238006,31.4643002 51.2230241,30.889806 51.1128913,30.3559326 Z" id="Path" fill="#5C96D0"></path>
                        <path d="M13.0777089,14.4544153 C13.7225056,13.9485733 16.3310012,17.0928411 22.2865776,18.7713169 C24.1602608,19.2611515 26.0717453,19.599513 28.0018207,19.7830009 C33.8636086,20.4440444 34.8835597,19.4323604 36.7945025,20.5647567 C39.1392176,21.9730668 38.0723722,23.8527297 40.897754,27.0314868 C43.5824528,30.0435459 46.2261191,30.2504813 46.0737126,31.3483883 C45.8509647,33.0096194 39.4557542,34.6306131 33.5119013,33.417742 C27.80252,32.2681011 24.2444147,28.8191784 20.7214803,25.4449823 C15.6100013,20.5934977 12.2805058,15.092466 13.0777089,14.4544153 Z" id="Path" fill="#356EB5"></path>
                    </g>
                    <g id="Aina" fill="#FEFFFE">
                        <path d="M30.2398457,30.5849515 C30.2472894,31.2521491 29.9851109,31.8948034 29.5112239,32.3705611 C29.037337,32.8463189 28.3908582,33.1159092 27.7149879,33.1198107 C26.6843431,33.1324828 25.7554508,32.5080113 25.3899846,31.5565727 L23.3074663,26.0788822 L6.93259637,26.0788822 L4.85007806,31.5143283 C4.4098571,32.6308388 3.22361878,33.2765914 2.03223256,33.048279 C0.840846351,32.8199666 -0.0145106502,31.782971 0.000186524302,30.5849515 C0.0188118211,30.2669538 0.0861468066,29.9535757 0.200071436,29.6555747 L11.0833692,2.73181035 C11.7129633,1.0861827 13.3096313,-0.00205042544 15.0915037,2.90070235e-06 C16.8842415,0.00647986833 18.4931553,1.08766875 19.1566935,2.73181035 L30.0399913,29.6555747 C30.1624807,29.9510355 30.2301227,30.2658427 30.2398457,30.5849515 L30.2398457,30.5849515 Z M21.6813904,21.7417904 L15.0915037,4.49199369 L8.5586723,21.7417904 L21.6813904,21.7417904 Z" id="Shape"></path>
                        <path d="M35.2807176,31.5715836 L35.2807176,11.5997037 C35.2770424,11.007013 35.5022225,10.4372923 35.9063347,10.0168513 C36.3104469,9.59641019 36.8601011,9.36 37.4334366,9.36 C38.6237535,9.37538337 39.5850745,10.3691778 39.5999551,11.5997037 L39.5999551,31.5715836 C39.6037077,32.1768192 39.3718451,32.7581846 38.9565591,33.1848158 C38.541273,33.611447 37.9774619,33.8474924 37.3920382,33.84 C36.8198688,33.832384 36.2744378,33.5882543 35.8776754,33.1620044 C35.480913,32.7357544 35.2659056,32.1629295 35.2807176,31.5715836 Z" id="Path"></path>
                        <path d="M66.96,16.9281074 L66.96,31.5991345 C66.9637034,32.1945878 66.730873,32.7667484 66.3134746,33.187806 C65.8960761,33.6088635 65.3288877,33.8437349 64.7386091,33.84 C64.1655492,33.8362492 63.6176346,33.60207 63.2163648,33.1893455 C62.8150951,32.7766211 62.5936328,32.2194606 62.6010871,31.6414141 L62.6010871,18.4501736 C62.6010871,14.5322624 60.6172432,13.2638739 57.6135358,13.2638739 C55.0567115,13.3520253 52.6797635,14.6131982 51.1590577,16.6885229 L51.1590577,31.5991345 C51.1665111,32.1883944 50.9406326,32.7563085 50.5315029,33.1769617 C50.1223732,33.5976149 49.5637986,33.8362486 48.9796235,33.84 C48.4004605,33.8437358 47.8439322,33.6133191 47.4343935,33.2001903 C47.0248549,32.7870614 46.7964406,32.2256543 46.8,31.6414141 L46.8,11.9109262 C46.784604,10.709862 47.733233,9.72143837 48.9237406,9.69829287 C50.1451648,9.69044629 51.1437183,10.6788665 51.1590577,11.9109262 L51.1590577,13.2215943 C53.2782962,10.8421105 56.2738592,9.44585476 59.4437017,9.36 C64.3893408,9.34596273 66.96,11.9954854 66.96,16.9281074 Z" id="Path"></path>
                        <path d="M93.6,17.0249763 L93.6,31.2377133 C93.6,32.472107 92.6242228,33.4727808 91.4205405,33.4727808 C90.2168583,33.4727808 89.2410811,32.472107 89.2410811,31.2377133 L89.2410811,30.5356728 C87.2898195,32.7496603 84.4784753,33.9575058 81.5710603,33.8309647 C79.4498016,33.9287022 77.3817238,33.1332466 75.8463507,31.6290397 C74.3109776,30.1248327 73.4416723,28.0425304 73.44,25.8649549 C73.44,20.4062323 77.6312682,18.0135639 81.5710603,18.0135639 C84.4558883,17.8622292 87.258381,19.0265127 89.2271102,21.1942369 L89.2271102,17.2255593 C89.2271102,14.2311419 86.8520582,12.4402224 83.4990437,12.4402224 C81.3964607,12.4246489 79.3549624,13.1647545 77.7290644,14.5320164 C77.4126994,14.7574497 77.0384635,14.882055 76.6533056,14.8902003 C75.6820748,14.8668499 74.906677,14.0525838 74.9069439,13.0562987 C74.9089302,12.4863412 75.1795899,11.9525615 75.6334304,11.6235632 C78.0460867,9.62703693 81.0702612,8.57126328 84.1696466,8.64347315 C89.2271102,8.61481843 93.6,10.9071954 93.6,17.0249763 Z M89.2271102,27.9567488 L89.2271102,23.8877797 C87.7451228,22.0636173 85.5188656,21.0518671 83.2056549,21.1512548 C80.0622037,21.1512548 77.8268607,23.0854478 77.8268607,25.9222643 C77.8268607,28.7590807 80.0761746,30.6502917 83.2196258,30.6502917 C85.5209466,30.7556841 87.7398486,29.7608071 89.2271102,27.9567488 Z" id="Shape"></path>
                    </g>
                </g>
            </g>
        </g>
    </g>
</svg>